The Tourist (2010)(DD 5.1)(DivX)(Nl subs) TBS 

*****Momenteel te zien in 70 bioscopen***** 


Verenigde Staten / Frankrijk
Actie / Drama
104 minuten

geregisseerd door Florian Henckel von Donnersmarck
met Johnny Depp, Angelina Jolie en Paul Bettany

Frank Taylor is een Amerikaanse toerist, die in Europa gemoedsrust probeert te vinden. 
Maar dan raakt hij verstrikt in een web van samenzweringen en leugens van Elise, een Interpolagent. 
Elise zit echter achter een crimineel aan met wie ze in het verleden een liefdesrelatie had.

Storyline

Elise (Angelina Jolie) sits next to an American tourist, Frank (Johnny Depp), on a train going to Venice. 
She has chosen him as a decoy, making believe that he is her lover who is wanted for police. 
Not only will they need to evade the police, but also the mobster whose money her lover stole


Info :

SOURCE..........: The Tourist 2010 R5 Dvd Elekti4ka
SIZE............: 896 MB
FORM............: AVI
VIDEO CODEC.....: XVID 
AUDIO...........: English
AUDIO CODE......: AC3
BITRATE.........: 448kbps
CHANNELS........: 6
SUBTITELS.......: NEDERLANDS INGEBAKKEN
Categorie.......: Beeld 
Formaat.........: DivX 
Bron............: R5
Ondertitels.....: Nederlands (ingebakken)
Thanks..........: Inge2222  

General
Complete name                    : The Tourist R5 DD 5.1.avi
Format                           : AVI
Format/Info                      : Audio Video Interleave
File size                        : 894 MiB
Duration                         : 1h 39mn
Overall bit rate                 : 1 257 Kbps
Writing application              : VirtualDubMod 1.5.10.2 (build 2542/release)
Writing library                  : VirtualDubMod build 2542/release

Video
ID                               : 0
Format                           : MPEG-4 Visual
Format profile                   : Advanced Simple@L5
Format settings, BVOP            : Yes
Format settings, QPel            : No
Format settings, GMC             : No warppoints
Format settings, Matrix          : Default (H.263)
Muxing mode                      : Packed bitstream
Codec ID                         : XVID
Codec ID/Hint                    : XviD
Duration                         : 1h 39mn
Bit rate                         : 802 Kbps
Width                            : 720 pixels
Height                           : 304 pixels
Display aspect ratio             : 2.35:1
Frame rate                       : 25.000 fps
Color space                      : YUV
Chroma subsampling               : 4:2:0
Bit depth                        : 8 bits
Scan type                        : Progressive
Bits/(Pixel*Frame)               : 0.146
Stream size                      : 570 MiB (64%)
Writing library                  : XviD 1.2.1 (UTC 2008-12-04)

Audio
ID                               : 1
Format                           : AC-3
Format/Info                      : Audio Coding 3
Mode extension                   : CM (complete main)
Codec ID                         : 2000
Duration                         : 1h 39mn
Bit rate mode                    : Constant
Bit rate                         : 448 Kbps
Channel(s)                       : 6 channels
Channel positions                : Front: L C R, Side: L R, LFE
Sampling rate                    : 48.0 KHz
Bit depth                        : 16 bits
Stream size                      : 318 MiB (36%)
Alignment                        : Split accross interleaves
Interleave, duration             : 64 ms (1.60 video frames)
Interleave, preload duration     : 500 ms
 
 
http://www.moviemeter.nl/film/67085  
http://www.imdb.com/title/tt1243957